<?xml version="1.0" encoding="utf-8"?>
<!-- Generator: Adobe Illustrator 24.0.2, SVG Export Plug-In . SVG Version: 6.00 Build 0)  -->
<svg version="1.1" id="Layer_1" xmlns="http://www.w3.org/2000/svg" xmlns:xlink="http://www.w3.org/1999/xlink" x="0px" y="0px"
	 viewBox="0 0 24 24" style="enable-background:new 0 0 24 24;" xml:space="preserve">
<style type="text/css">
	.st0{fill:#17C671;}
	.st1{fill:#FFFFFF;}
</style>
<circle class="st0" cx="12" cy="12" r="12"/>
<path class="st1" d="M11.54,18.23v-1.32c-0.68-0.06-1.33-0.21-1.93-0.48C9,16.18,8.47,15.83,8.01,15.4L9,14.05
	c0.35,0.35,0.75,0.63,1.19,0.85c0.44,0.21,0.89,0.36,1.34,0.43v-2.27l-0.77-0.15c-0.91-0.17-1.56-0.45-1.96-0.84
	c-0.39-0.39-0.59-0.95-0.59-1.68c0-0.84,0.29-1.51,0.88-2c0.6-0.49,1.41-0.76,2.44-0.8V6.56h0.92v1.08
	c0.56,0.06,1.12,0.18,1.68,0.38c0.57,0.19,1.09,0.43,1.57,0.73l-0.81,1.47c-0.43-0.26-0.85-0.47-1.26-0.63
	c-0.41-0.16-0.8-0.27-1.18-0.34v2.23l0.74,0.13c0.97,0.19,1.68,0.48,2.11,0.87c0.44,0.38,0.66,0.92,0.66,1.61
	c0,0.83-0.32,1.5-0.95,2.02c-0.63,0.51-1.48,0.79-2.56,0.84v1.3H11.54z M11.45,11.34l0.08,0.01V9.17c-0.47,0.01-0.84,0.11-1.12,0.31
	C10.14,9.68,10,9.93,10,10.24c0,0.35,0.1,0.59,0.29,0.74C10.49,11.13,10.87,11.25,11.45,11.34z M12.52,13.16l-0.06-0.01v2.24
	c0.5-0.04,0.91-0.16,1.2-0.36c0.31-0.21,0.46-0.47,0.46-0.78c0-0.33-0.11-0.56-0.32-0.7C13.59,13.39,13.16,13.27,12.52,13.16z"/>
</svg>
