<?xml version="1.0" encoding="utf-8"?>
<svg viewBox="616.8826 314.251 33.8901 41.18" xmlns="http://www.w3.org/2000/svg">
  <linearGradient id="SVGID_1_" gradientUnits="userSpaceOnUse" x1="16.0706" y1="34.3913" x2="5.6914" y2="33.3695" gradientTransform="matrix(1, 0, 0, -1, 616.880563, 368.485913)">
    <stop offset="0" style="stop-color:#26262A"/>
    <stop offset="1" style="stop-color:#545490"/>
  </linearGradient>
  <path class="st0" d="M 628.861 352.331 L 630.201 349.711 L 634.411 341.451 L 642.741 325.131 C 642.761 325.151 621.501 314.251 621.501 314.251 L 621.221 316.291 C 621.201 316.441 620.981 318.311 622.071 320.771 L 620.171 319.811 L 620.611 322.641 C 620.631 322.801 620.951 324.711 622.271 327.111 C 620.281 328.961 618.771 331.261 617.861 333.821 C 616.951 336.381 616.671 339.121 617.041 341.811 C 617.411 344.501 618.431 347.061 620.001 349.271 C 621.571 351.481 623.651 353.291 626.071 354.521 C 626.321 354.671 626.591 354.801 626.851 354.921 L 627.401 355.201 L 627.431 355.141 C 627.941 355.321 628.471 355.421 629.011 355.431 C 629.431 355.431 629.841 355.371 630.241 355.241 C 631.221 354.931 632.051 354.231 632.681 353.201 C 631.381 353.101 630.091 352.801 628.861 352.331 Z M 629.461 326.211 C 632.501 325.221 635.791 325.311 638.781 326.471 L 626.161 351.201 C 623.271 349.311 621.181 346.431 620.291 343.091 C 619.401 339.761 619.771 336.211 621.341 333.141 C 622.171 331.511 623.311 330.051 624.711 328.861 C 626.091 327.671 627.711 326.771 629.461 326.211 Z M 631.671 322.741 C 630.611 322.871 629.571 323.101 628.561 323.431 C 628.351 323.501 628.141 323.571 627.931 323.641 C 625.961 321.981 624.991 320.351 624.531 319.091 L 631.671 322.741 Z" style="fill: url('#SVGID_1_');" transform="matrix(0.9999999999999999, 0, 0, 0.9999999999999999, 5.684341886080802e-14, 0)"/>
  <path class="st1" d="M 649.901 333.941 C 648.661 330.261 646.141 327.141 642.791 325.161 L 642.731 325.121 L 634.411 341.451 L 642.671 345.661 C 641.321 347.601 639.371 349.051 637.121 349.781 C 634.871 350.511 632.441 350.481 630.211 349.711 L 628.871 352.331 C 630.101 352.801 631.381 353.091 632.691 353.191 C 633.051 353.221 633.401 353.231 633.761 353.231 C 636.051 353.231 638.311 352.661 640.321 351.571 C 642.341 350.481 644.051 348.911 645.311 346.991 L 648.181 348.451 L 648.851 347.151 C 650.971 342.961 651.361 338.271 649.901 333.941 Z M 635.741 338.851 L 641.401 327.751 C 644.091 329.381 646.111 331.901 647.121 334.881 C 648.161 338.021 648.051 341.431 646.821 344.501 L 635.741 338.851 Z" style="fill: rgb(23, 198, 113);" transform="matrix(0.9999999999999999, 0, 0, 0.9999999999999999, 5.684341886080802e-14, 0)"/>
  <path class="st2" d="M 633.401 331.471 C 633.681 330.291 632.951 329.101 631.771 328.821 C 630.591 328.541 629.401 329.271 629.121 330.451 C 628.841 331.631 629.571 332.821 630.751 333.101 C 631.931 333.381 633.121 332.651 633.401 331.471 Z" style="fill: rgb(38, 38, 42);" transform="matrix(0.9999999999999999, 0, 0, 0.9999999999999999, 5.684341886080802e-14, 0)"/>
</svg>