<?xml version="1.0" encoding="utf-8"?>
<!-- Generator: Adobe Illustrator 23.1.1, SVG Export Plug-In . SVG Version: 6.00 Build 0)  -->
<svg version="1.1" id="Layer_1" xmlns="http://www.w3.org/2000/svg" xmlns:xlink="http://www.w3.org/1999/xlink" x="0px" y="0px"
	 viewBox="0 0 163.75 41.18" style="enable-background:new 0 0 163.75 41.18;" xml:space="preserve">
<style type="text/css">
	.st0{fill:url(#SVGID_1_);}
	.st1{fill:#17C671;}
	.st2{fill:#26262A;}
	.st3{fill:url(#SVGID_2_);}
</style>
<linearGradient id="SVGID_1_" gradientUnits="userSpaceOnUse" x1="16.0706" y1="34.3913" x2="5.6914" y2="33.3695" gradientTransform="matrix(1 0 0 -1 0 54.2349)">
	<stop  offset="0" style="stop-color:#26262A"/>
	<stop  offset="1" style="stop-color:#545490"/>
</linearGradient>
<path class="st0" d="M11.98,38.08l1.34-2.62l4.21-8.26l8.33-16.32C25.88,10.9,4.62,0,4.62,0L4.34,2.04C4.32,2.19,4.1,4.06,5.19,6.52
	L3.29,5.56l0.44,2.83c0.02,0.16,0.34,2.07,1.66,4.47c-1.99,1.85-3.5,4.15-4.41,6.71c-0.91,2.56-1.19,5.3-0.82,7.99
	c0.37,2.69,1.39,5.25,2.96,7.46c1.57,2.21,3.65,4.02,6.07,5.25c0.25,0.15,0.52,0.28,0.78,0.4l0.55,0.28l0.03-0.06
	c0.51,0.18,1.04,0.28,1.58,0.29c0.42,0,0.83-0.06,1.23-0.19c0.98-0.31,1.81-1.01,2.44-2.04C14.5,38.85,13.21,38.55,11.98,38.08z
	 M12.58,11.96c3.04-0.99,6.33-0.9,9.32,0.26L9.28,36.95c-2.89-1.89-4.98-4.77-5.87-8.11c-0.89-3.33-0.52-6.88,1.05-9.95
	c0.83-1.63,1.97-3.09,3.37-4.28C9.21,13.42,10.83,12.52,12.58,11.96z M14.79,8.49c-1.06,0.13-2.1,0.36-3.11,0.69
	c-0.21,0.07-0.42,0.14-0.63,0.21C9.08,7.73,8.11,6.1,7.65,4.84L14.79,8.49z"/>
<path class="st1" d="M33.02,19.69c-1.24-3.68-3.76-6.8-7.11-8.78l-0.06-0.04L17.53,27.2l8.26,4.21c-1.35,1.94-3.3,3.39-5.55,4.12
	c-2.25,0.73-4.68,0.7-6.91-0.07l-1.34,2.62c1.23,0.47,2.51,0.76,3.82,0.86c0.36,0.03,0.71,0.04,1.07,0.04
	c2.29,0,4.55-0.57,6.56-1.66c2.02-1.09,3.73-2.66,4.99-4.58l2.87,1.46l0.67-1.3C34.09,28.71,34.48,24.02,33.02,19.69z M18.86,24.6
	l5.66-11.1c2.69,1.63,4.71,4.15,5.72,7.13c1.04,3.14,0.93,6.55-0.3,9.62L18.86,24.6z"/>
<path class="st2" d="M16.52,17.22c0.28-1.18-0.45-2.37-1.63-2.65s-2.37,0.45-2.65,1.63c-0.28,1.18,0.45,2.37,1.63,2.65
	C15.05,19.13,16.24,18.4,16.52,17.22z"/>
<linearGradient id="SVGID_2_" gradientUnits="userSpaceOnUse" x1="104.4949" y1="47.7698" x2="48.5479" y2="20.9151" gradientTransform="matrix(1 0 0 -1 0 54.2349)">
	<stop  offset="0" style="stop-color:#26262A"/>
	<stop  offset="1" style="stop-color:#545490"/>
</linearGradient>
<path class="st3" d="M49.15,24.88c0.62,0,1.19-0.13,1.71-0.4c0.53-0.27,1.01-0.66,1.44-1.18l2.05,2.02
	c-0.59,0.74-1.38,1.33-2.35,1.78c-0.96,0.45-1.95,0.67-2.96,0.67c-0.96,0-1.86-0.17-2.71-0.51c-0.84-0.34-1.56-0.8-2.16-1.38
	c-0.61-0.58-1.08-1.27-1.44-2.07c-0.35-0.8-0.53-1.66-0.53-2.58c0-0.92,0.18-1.78,0.53-2.58c0.35-0.81,0.83-1.51,1.44-2.09
	c0.62-0.58,1.35-1.04,2.18-1.38c0.84-0.34,1.73-0.51,2.69-0.51c0.52,0,1.04,0.06,1.56,0.18s1.02,0.29,1.49,0.51
	c0.47,0.21,0.91,0.47,1.31,0.78c0.4,0.3,0.75,0.64,1.04,1.02l-2.11,2.07c-0.45-0.56-0.95-0.98-1.51-1.25
	c-0.55-0.29-1.14-0.44-1.78-0.44c-0.51,0-0.99,0.1-1.44,0.29c-0.44,0.18-0.82,0.44-1.15,0.76c-0.32,0.33-0.57,0.72-0.76,1.18
	c-0.18,0.45-0.27,0.93-0.27,1.45c0,0.52,0.09,1.01,0.27,1.45c0.19,0.44,0.45,0.82,0.78,1.15c0.34,0.33,0.73,0.59,1.18,0.78
	C48.12,24.79,48.61,24.88,49.15,24.88z M55.53,27.59v-9.62h2.95v0.96c0.32-0.38,0.68-0.67,1.11-0.87c0.42-0.21,0.9-0.31,1.42-0.31
	c0.28,0.01,0.5,0.04,0.67,0.07c0.17,0.02,0.32,0.08,0.44,0.16v2.56c-0.19-0.08-0.41-0.15-0.65-0.2c-0.24-0.06-0.49-0.09-0.75-0.09
	c-0.46,0-0.89,0.11-1.29,0.33c-0.39,0.22-0.7,0.52-0.95,0.89v6.11H55.53z M66.3,27.74v-0.02l-3.69-9.75h3.25l2.13,6.06l2.47-6.06
	h3.18l-4.31,10.11c-0.53,1.25-1.15,2.13-1.85,2.65c-0.7,0.52-1.63,0.78-2.78,0.78c-0.23,0-0.45-0.01-0.67-0.04
	c-0.22-0.01-0.4-0.04-0.55-0.07V28.9c0.13,0.02,0.27,0.04,0.4,0.05c0.15,0.01,0.32,0.02,0.51,0.02c0.46,0,0.85-0.1,1.18-0.31
	C65.9,28.46,66.14,28.15,66.3,27.74z M74.51,31.43V17.97h2.91v0.71c0.38-0.27,0.78-0.47,1.22-0.62c0.44-0.15,0.89-0.22,1.36-0.22
	c0.68,0,1.32,0.13,1.91,0.38c0.61,0.25,1.13,0.61,1.56,1.05c0.45,0.45,0.8,0.98,1.05,1.58c0.25,0.59,0.38,1.24,0.38,1.93
	c0,0.69-0.13,1.34-0.4,1.95c-0.25,0.59-0.61,1.12-1.05,1.56c-0.45,0.44-0.98,0.78-1.6,1.04c-0.61,0.25-1.25,0.38-1.95,0.38
	c-0.45,0-0.88-0.05-1.29-0.16c-0.41-0.11-0.8-0.27-1.16-0.47v4.35H74.51z M79.49,20.35c-0.41,0-0.79,0.07-1.13,0.2
	c-0.34,0.12-0.64,0.31-0.91,0.56v3.36c0.25,0.23,0.56,0.41,0.91,0.55c0.35,0.13,0.73,0.2,1.13,0.2c0.72,0,1.32-0.23,1.8-0.69
	c0.48-0.47,0.73-1.05,0.73-1.75c0-0.69-0.25-1.27-0.75-1.73C80.79,20.59,80.19,20.35,79.49,20.35z M87.31,24.66v-4.24h-1.95v-2.45
	h1.95V15.5l2.95-0.64v3.11h2.69v2.45h-2.69v3.65c0,0.42,0.09,0.73,0.27,0.91c0.19,0.17,0.53,0.25,1,0.25c0.23,0,0.45-0.01,0.65-0.04
	c0.21-0.04,0.43-0.09,0.67-0.16v2.38c-0.27,0.08-0.61,0.15-1.02,0.2c-0.41,0.06-0.76,0.09-1.04,0.09c-1.15,0-2.02-0.25-2.62-0.76
	C87.6,26.43,87.31,25.67,87.31,24.66z M93.66,22.79c0-0.69,0.13-1.34,0.4-1.95c0.28-0.62,0.65-1.15,1.11-1.6
	c0.47-0.45,1.02-0.8,1.65-1.05c0.64-0.27,1.33-0.4,2.05-0.4c0.73,0,1.41,0.13,2.04,0.4c0.64,0.25,1.19,0.61,1.65,1.05
	c0.47,0.45,0.84,0.98,1.11,1.6c0.28,0.61,0.42,1.25,0.42,1.95c0,0.69-0.14,1.35-0.42,1.96c-0.27,0.61-0.64,1.13-1.11,1.58
	c-0.46,0.45-1.01,0.8-1.65,1.05c-0.63,0.25-1.31,0.38-2.04,0.38c-0.73,0-1.41-0.13-2.05-0.38c-0.63-0.25-1.18-0.61-1.65-1.05
	c-0.46-0.45-0.83-0.98-1.11-1.58C93.79,24.14,93.66,23.48,93.66,22.79z M98.88,25.23c0.65,0,1.21-0.24,1.65-0.71
	c0.46-0.47,0.69-1.05,0.69-1.73c0-0.69-0.23-1.27-0.69-1.75c-0.45-0.47-1-0.71-1.65-0.71s-1.21,0.24-1.67,0.71
	c-0.45,0.47-0.67,1.05-0.67,1.75c0,0.68,0.22,1.25,0.67,1.73C97.67,24.99,98.22,25.23,98.88,25.23z"/>
<path class="st1" d="M107.85,27.77V15.04h6.71c0.62,0,1.19,0.1,1.73,0.31c0.53,0.21,0.99,0.5,1.36,0.87
	c0.39,0.36,0.69,0.8,0.91,1.31c0.22,0.5,0.33,1.04,0.33,1.64c0,0.57-0.11,1.1-0.33,1.6c-0.22,0.5-0.52,0.93-0.91,1.29
	c-0.39,0.35-0.85,0.63-1.38,0.84c-0.52,0.21-1.09,0.31-1.71,0.31h-3.58v4.56H107.85z M114.2,17.71h-3.22v2.91h3.22
	c0.45,0,0.81-0.13,1.09-0.4c0.29-0.27,0.44-0.61,0.44-1.04c0-0.44-0.14-0.79-0.44-1.05C115.01,17.85,114.64,17.71,114.2,17.71z
	 M123.06,27.93c-1.02,0-1.85-0.28-2.51-0.84c-0.65-0.56-0.98-1.27-0.98-2.15c0-0.91,0.35-1.62,1.04-2.13
	c0.7-0.51,1.68-0.76,2.93-0.76c0.38,0,0.75,0.02,1.11,0.07c0.36,0.05,0.72,0.12,1.07,0.2v-0.47c0-0.48-0.16-0.84-0.47-1.07
	c-0.3-0.24-0.76-0.36-1.36-0.36c-0.38,0-0.8,0.06-1.27,0.18c-0.47,0.12-1.02,0.32-1.64,0.58l-1.06-2.16
	c0.78-0.35,1.53-0.61,2.27-0.78c0.75-0.18,1.49-0.27,2.22-0.27c1.33,0,2.37,0.32,3.11,0.96c0.74,0.63,1.11,1.52,1.11,2.67v6.16
	h-2.91v-0.58c-0.39,0.27-0.8,0.46-1.24,0.58C124.06,27.88,123.59,27.93,123.06,27.93z M122.37,24.9c0,0.3,0.13,0.54,0.4,0.71
	c0.27,0.17,0.64,0.25,1.11,0.25c0.35,0,0.68-0.04,0.98-0.11c0.32-0.07,0.6-0.19,0.86-0.35v-1.24c-0.28-0.07-0.56-0.13-0.86-0.16
	c-0.29-0.04-0.59-0.05-0.89-0.05c-0.51,0-0.9,0.08-1.18,0.25C122.51,24.36,122.37,24.59,122.37,24.9z M130.38,27.77v-9.62h2.95v0.96
	c0.32-0.38,0.68-0.67,1.11-0.87c0.43-0.21,0.9-0.31,1.42-0.31c0.28,0.01,0.5,0.04,0.67,0.07c0.17,0.02,0.32,0.08,0.44,0.16v2.56
	c-0.19-0.08-0.41-0.15-0.65-0.2c-0.24-0.06-0.49-0.09-0.75-0.09c-0.46,0-0.89,0.11-1.29,0.33c-0.39,0.22-0.7,0.52-0.95,0.89v6.11
	H130.38z M138.23,27.77v-9.62h2.95v0.96c0.32-0.38,0.69-0.67,1.11-0.87c0.42-0.21,0.9-0.31,1.42-0.31c0.28,0.01,0.5,0.04,0.67,0.07
	c0.17,0.02,0.31,0.08,0.44,0.16v2.56c-0.19-0.08-0.41-0.15-0.65-0.2c-0.24-0.06-0.49-0.09-0.75-0.09c-0.46,0-0.89,0.11-1.29,0.33
	c-0.39,0.22-0.7,0.52-0.95,0.89v6.11H138.23z M145.29,22.97c0-0.69,0.13-1.34,0.4-1.95c0.28-0.62,0.65-1.15,1.11-1.6
	c0.47-0.45,1.02-0.8,1.65-1.05c0.64-0.27,1.33-0.4,2.05-0.4c0.73,0,1.41,0.13,2.04,0.4c0.64,0.25,1.19,0.61,1.65,1.05
	c0.47,0.45,0.84,0.98,1.11,1.6c0.28,0.61,0.42,1.25,0.42,1.95s-0.14,1.35-0.42,1.96c-0.27,0.61-0.64,1.13-1.11,1.58
	c-0.46,0.45-1.01,0.8-1.65,1.05c-0.63,0.25-1.31,0.38-2.04,0.38c-0.73,0-1.41-0.13-2.05-0.38c-0.63-0.25-1.18-0.61-1.65-1.05
	c-0.46-0.45-0.83-0.98-1.11-1.58C145.42,24.32,145.29,23.66,145.29,22.97z M150.5,25.41c0.65,0,1.21-0.24,1.65-0.71
	c0.46-0.47,0.69-1.05,0.69-1.73c0-0.69-0.23-1.27-0.69-1.75c-0.45-0.47-1-0.71-1.65-0.71s-1.21,0.24-1.67,0.71
	c-0.45,0.47-0.67,1.05-0.67,1.75c0,0.68,0.22,1.25,0.67,1.73C149.29,25.17,149.85,25.41,150.5,25.41z M158.11,24.84v-4.24h-1.95
	v-2.45h1.95v-2.47l2.95-0.64v3.11h2.69v2.45h-2.69v3.65c0,0.42,0.09,0.73,0.27,0.91c0.19,0.17,0.53,0.25,1,0.25
	c0.23,0,0.45-0.01,0.65-0.04c0.21-0.04,0.43-0.09,0.67-0.16v2.38c-0.27,0.08-0.61,0.15-1.02,0.2c-0.41,0.06-0.76,0.09-1.04,0.09
	c-1.15,0-2.02-0.25-2.62-0.76C158.4,26.61,158.11,25.85,158.11,24.84z"/>
</svg>
