<?xml version="1.0" encoding="utf-8"?>
<svg viewBox="229.0916 44.017 136.2404 41.18" width="136.24" height="41.18" xmlns="http://www.w3.org/2000/svg">
  <defs/>
  <linearGradient id="SVGID_1_" gradientUnits="userSpaceOnUse" x1="16.0706" y1="34.3913" x2="5.6914" y2="33.3695" gradientTransform="matrix(1, 0, 0, -1, 229.090791, 98.251491)">
    <stop offset="0" style="stop-color:#26262A"/>
    <stop offset="1" style="stop-color:#545490"/>
  </linearGradient>
  <path d="M 279.06 71.54 Q 277.54 71.54 276.24 71.01 Q 274.94 70.49 273.97 69.56 Q 273 68.63 272.46 67.38 Q 271.91 66.14 271.91 64.7 Q 271.91 63.23 272.46 61.99 Q 273 60.74 273.98 59.81 Q 274.95 58.88 276.26 58.36 Q 277.56 57.84 279.06 57.84 Q 280.16 57.84 281.22 58.16 Q 282.29 58.48 283.19 59.06 Q 284.09 59.64 284.7 60.44 L 282.5 62.61 Q 281.79 61.71 280.93 61.28 Q 280.07 60.84 279.06 60.84 Q 278.26 60.84 277.57 61.13 Q 276.87 61.43 276.36 61.94 Q 275.85 62.45 275.56 63.16 Q 275.28 63.86 275.28 64.7 Q 275.28 65.51 275.57 66.21 Q 275.87 66.9 276.39 67.42 Q 276.91 67.95 277.62 68.23 Q 278.34 68.52 279.17 68.52 Q 280.14 68.52 280.97 68.1 Q 281.79 67.68 282.46 66.86 L 284.61 68.97 Q 284 69.75 283.11 70.33 Q 282.21 70.91 281.17 71.22 Q 280.12 71.54 279.06 71.54 Z M 290.55 71.54 Q 289.01 71.54 287.78 70.84 Q 286.54 70.15 285.82 68.97 Q 285.1 67.79 285.1 66.33 Q 285.1 64.86 285.81 63.68 Q 286.53 62.49 287.77 61.8 Q 289.01 61.11 290.55 61.11 Q 292.08 61.11 293.32 61.8 Q 294.56 62.49 295.28 63.68 Q 296 64.86 296 66.33 Q 296 67.79 295.28 68.97 Q 294.56 70.15 293.32 70.84 Q 292.09 71.54 290.55 71.54 Z M 290.55 68.88 Q 291.25 68.88 291.8 68.54 Q 292.36 68.2 292.68 67.62 Q 293 67.04 293 66.32 Q 293 65.61 292.68 65.03 Q 292.35 64.45 291.79 64.11 Q 291.24 63.77 290.55 63.77 Q 289.87 63.77 289.31 64.11 Q 288.75 64.45 288.42 65.03 Q 288.1 65.61 288.1 66.32 Q 288.1 67.04 288.42 67.62 Q 288.75 68.2 289.31 68.54 Q 289.86 68.88 290.55 68.88 Z M 297.44 71.35 L 297.44 61.3 L 300.52 61.3 L 300.52 71.35 Z M 298.98 60.36 Q 298.27 60.36 297.78 59.87 Q 297.29 59.39 297.29 58.67 Q 297.29 57.96 297.78 57.47 Q 298.27 56.98 298.98 56.98 Q 299.68 56.98 300.18 57.47 Q 300.67 57.96 300.67 58.67 Q 300.67 59.39 300.18 59.87 Q 299.68 60.36 298.98 60.36 Z M 302.42 71.35 L 302.42 61.3 L 305.49 61.3 L 305.49 61.98 Q 306.63 61.11 308.19 61.11 Q 309.37 61.11 310.27 61.62 Q 311.18 62.13 311.69 63.04 Q 312.2 63.96 312.2 65.15 L 312.2 71.35 L 309.12 71.35 L 309.12 65.57 Q 309.12 64.73 308.63 64.24 Q 308.14 63.75 307.3 63.75 Q 306.71 63.75 306.26 63.96 Q 305.82 64.16 305.49 64.54 L 305.49 71.35 Z" style="fill: rgb(84, 84, 144);"/>
  <path class="st0" d="M 241.07 82.097 L 242.41 79.477 L 246.62 71.217 L 254.95 54.897 C 254.97 54.917 233.71 44.017 233.71 44.017 L 233.43 46.057 C 233.41 46.207 233.19 48.077 234.28 50.537 L 232.38 49.577 L 232.82 52.407 C 232.84 52.567 233.16 54.477 234.48 56.877 C 232.49 58.727 230.98 61.027 230.07 63.587 C 229.16 66.147 228.88 68.887 229.25 71.577 C 229.62 74.267 230.64 76.827 232.21 79.037 C 233.78 81.247 235.86 83.057 238.28 84.287 C 238.53 84.437 238.8 84.567 239.06 84.687 L 239.61 84.967 L 239.64 84.907 C 240.15 85.087 240.68 85.187 241.22 85.197 C 241.64 85.197 242.05 85.137 242.45 85.007 C 243.43 84.697 244.26 83.997 244.89 82.967 C 243.59 82.867 242.3 82.567 241.07 82.097 Z M 241.67 55.977 C 244.71 54.987 248 55.077 250.99 56.237 L 238.37 80.967 C 235.48 79.077 233.39 76.197 232.5 72.857 C 231.61 69.527 231.98 65.977 233.55 62.907 C 234.38 61.277 235.52 59.817 236.92 58.627 C 238.3 57.437 239.92 56.537 241.67 55.977 Z M 243.88 52.507 C 242.82 52.637 241.78 52.867 240.77 53.197 C 240.56 53.267 240.35 53.337 240.14 53.407 C 238.17 51.747 237.2 50.117 236.74 48.857 L 243.88 52.507 Z" style="fill: url('#SVGID_1_');"/>
  <path class="st1" d="M 262.11 63.707 C 260.87 60.027 258.35 56.907 255 54.927 L 254.94 54.887 L 246.62 71.217 L 254.88 75.427 C 253.53 77.367 251.58 78.817 249.33 79.547 C 247.08 80.277 244.65 80.247 242.42 79.477 L 241.08 82.097 C 242.31 82.567 243.59 82.857 244.9 82.957 C 245.26 82.987 245.61 82.997 245.97 82.997 C 248.26 82.997 250.52 82.427 252.53 81.337 C 254.55 80.247 256.26 78.677 257.52 76.757 L 260.39 78.217 L 261.06 76.917 C 263.18 72.727 263.57 68.037 262.11 63.707 Z M 247.95 68.617 L 253.61 57.517 C 256.3 59.147 258.32 61.667 259.33 64.647 C 260.37 67.787 260.26 71.197 259.03 74.267 L 247.95 68.617 Z" style="fill: rgb(23, 198, 113);"/>
  <path class="st2" d="M 245.61 61.237 C 245.89 60.057 245.16 58.867 243.98 58.587 C 242.8 58.307 241.61 59.037 241.33 60.217 C 241.05 61.397 241.78 62.587 242.96 62.867 C 244.14 63.147 245.33 62.417 245.61 61.237 Z" style="fill: rgb(38, 38, 42);"/>
  <path style="fill: rgb(23, 198, 113);"/>
  <path d="M 315.76 71.34 L 315.76 58.04 L 322.77 58.04 Q 324.08 58.04 325.1 58.6 Q 326.11 59.16 326.7 60.13 Q 327.29 61.1 327.29 62.35 Q 327.29 63.55 326.7 64.51 Q 326.11 65.47 325.09 66.02 Q 324.06 66.57 322.77 66.57 L 319.03 66.57 L 319.03 71.34 Z M 319.03 63.87 L 322.39 63.87 Q 323.11 63.87 323.55 63.45 Q 323.99 63.04 323.99 62.37 Q 323.99 61.69 323.55 61.26 Q 323.11 60.83 322.39 60.83 L 319.03 60.83 Z M 332.54 71.53 Q 331.36 71.53 330.46 71.02 Q 329.56 70.5 329.05 69.58 Q 328.53 68.66 328.53 67.48 L 328.53 61.29 L 331.61 61.29 L 331.61 67.06 Q 331.61 67.88 332.11 68.38 Q 332.62 68.89 333.43 68.89 Q 334.02 68.89 334.48 68.68 Q 334.94 68.47 335.24 68.09 L 335.24 61.29 L 338.32 61.29 L 338.32 71.34 L 335.24 71.34 L 335.24 70.65 Q 334.1 71.53 332.54 71.53 Z M 340.22 71.34 L 340.22 58.04 L 343.3 57.56 L 343.3 71.34 Z M 349.17 71.53 Q 347.74 71.53 346.53 71.2 Q 345.31 70.86 344.42 70.22 L 345.88 68.15 Q 346.83 68.72 347.61 68.97 Q 348.39 69.23 349.15 69.23 Q 349.91 69.23 350.36 69.01 Q 350.8 68.79 350.8 68.43 Q 350.8 68.15 350.56 67.97 Q 350.31 67.79 349.78 67.71 L 347.78 67.41 Q 346.28 67.18 345.49 66.41 Q 344.7 65.64 344.7 64.4 Q 344.7 63.38 345.23 62.65 Q 345.75 61.91 346.72 61.53 Q 347.69 61.14 349.04 61.14 Q 350.14 61.14 351.22 61.44 Q 352.3 61.74 353.24 62.35 L 351.77 64.33 Q 350.96 63.85 350.21 63.63 Q 349.47 63.42 348.73 63.42 Q 348.14 63.42 347.78 63.62 Q 347.42 63.81 347.42 64.14 Q 347.42 64.44 347.69 64.62 Q 347.95 64.8 348.6 64.9 L 350.59 65.2 Q 352.08 65.41 352.88 66.18 Q 353.69 66.95 353.69 68.13 Q 353.69 69.12 353.1 69.88 Q 352.51 70.64 351.5 71.08 Q 350.48 71.53 349.17 71.53 Z M 359.98 71.53 Q 358.44 71.53 357.19 70.84 Q 355.95 70.14 355.23 68.96 Q 354.51 67.79 354.51 66.32 Q 354.51 64.86 355.2 63.68 Q 355.89 62.5 357.09 61.81 Q 358.29 61.12 359.75 61.12 Q 361.23 61.12 362.37 61.83 Q 363.51 62.54 364.17 63.78 Q 364.82 65.01 364.82 66.61 L 364.82 67.37 L 357.66 67.37 Q 357.87 67.84 358.22 68.2 Q 358.57 68.56 359.07 68.76 Q 359.56 68.96 360.13 68.96 Q 360.76 68.96 361.27 68.76 Q 361.78 68.56 362.14 68.2 L 364.18 70.01 Q 363.23 70.81 362.23 71.17 Q 361.23 71.53 359.98 71.53 Z M 357.6 65.22 L 361.8 65.22 Q 361.65 64.73 361.34 64.38 Q 361.02 64.02 360.6 63.82 Q 360.19 63.62 359.69 63.62 Q 359.18 63.62 358.76 63.81 Q 358.34 64 358.05 64.36 Q 357.75 64.71 357.6 65.22 Z" style="fill: rgb(23, 198, 113);"/>
</svg>